<svg xmlns="http://www.w3.org/2000/svg" xmlns:xlink="http://www.w3.org/1999/xlink" width="500" zoomAndPan="magnify" viewBox="0 0 375 374.999991" height="500" preserveAspectRatio="xMidYMid meet" version="1.2"><defs><clipPath id="25138f390f"><path d="M 9.019531 9.019531 L 375 9.019531 L 375 375 L 9.019531 375 Z M 9.019531 9.019531 "/></clipPath></defs><g id="3ef78df9de"><g clip-rule="nonzero" clip-path="url(#25138f390f)"><path style=" stroke:none;fill-rule:nonzero;fill:#ff914d;fill-opacity:1;" d="M 364.203125 184.324219 L 199.605469 19.726562 C 192.925781 13.136719 183.773438 9.019531 173.710938 9.019531 L 45.617188 9.019531 C 25.398438 9.019531 9.019531 25.398438 9.019531 45.617188 L 9.019531 173.710938 C 9.019531 183.867188 13.136719 193.015625 19.816406 199.605469 L 184.507812 364.292969 C 191.09375 370.878906 200.242188 374.996094 210.308594 374.996094 C 220.371094 374.996094 229.613281 370.878906 236.203125 364.292969 L 364.292969 236.203125 C 370.878906 229.523438 374.996094 220.371094 374.996094 210.308594 C 374.996094 200.152344 370.878906 191.003906 364.203125 184.324219 Z M 73.066406 100.515625 C 57.878906 100.515625 45.617188 88.253906 45.617188 73.066406 C 45.617188 57.878906 57.878906 45.617188 73.066406 45.617188 C 88.253906 45.617188 100.515625 57.878906 100.515625 73.066406 C 100.515625 88.253906 88.253906 100.515625 73.066406 100.515625 Z M 73.066406 100.515625 "/></g></g></svg>