<svg xmlns="http://www.w3.org/2000/svg" xmlns:xlink="http://www.w3.org/1999/xlink" width="500" zoomAndPan="magnify" viewBox="0 0 375 374.999991" height="500" preserveAspectRatio="xMidYMid meet" version="1.2"><defs><clipPath id="817568c870"><path d="M 10.035156 16.90625 L 308.277344 16.90625 L 308.277344 315 L 10.035156 315 Z M 10.035156 16.90625 "/></clipPath><clipPath id="3a3b68ea33"><path d="M 67.378906 80.320312 L 364.644531 80.320312 L 364.644531 364.691406 L 67.378906 364.691406 Z M 67.378906 80.320312 "/></clipPath></defs><g id="16d0fdca37"><g clip-rule="nonzero" clip-path="url(#817568c870)"><path style=" stroke:none;fill-rule:nonzero;fill:#ff914d;fill-opacity:1;" d="M 299.269531 159.660156 L 165.230469 25.621094 C 159.792969 20.257812 152.339844 16.90625 144.144531 16.90625 L 39.835938 16.90625 C 23.371094 16.90625 10.035156 30.242188 10.035156 46.707031 L 10.035156 151.015625 C 10.035156 159.289062 13.386719 166.738281 18.824219 172.101562 L 152.9375 306.214844 C 158.300781 311.578125 165.753906 314.933594 173.949219 314.933594 C 182.144531 314.933594 189.667969 311.578125 195.035156 306.214844 L 299.34375 201.90625 C 304.707031 196.464844 308.058594 189.015625 308.058594 180.820312 C 308.058594 172.550781 304.707031 165.097656 299.269531 159.660156 Z M 62.1875 91.414062 C 49.820312 91.414062 39.835938 81.429688 39.835938 69.058594 C 39.835938 56.691406 49.820312 46.707031 62.1875 46.707031 C 74.554688 46.707031 84.539062 56.691406 84.539062 69.058594 C 84.539062 81.429688 74.554688 91.414062 62.1875 91.414062 Z M 62.1875 91.414062 "/></g><g clip-rule="nonzero" clip-path="url(#3a3b68ea33)"><path style=" stroke:none;fill-rule:nonzero;fill:#231f20;fill-opacity:1;" d="M 76.390625 80.394531 C 76.851562 80.402344 77.320312 80.441406 77.769531 80.523438 C 77.777344 80.523438 77.785156 80.519531 77.792969 80.523438 L 123.164062 88.269531 C 126.050781 88.765625 128.46875 90.742188 129.535156 93.46875 C 129.535156 93.476562 129.535156 93.488281 129.535156 93.496094 L 150.589844 147.480469 L 356.054688 152.601562 C 358.417969 152.660156 360.636719 153.730469 362.171875 155.507812 C 363.707031 157.289062 364.445312 159.652344 364.160156 162.007812 L 352.816406 255.828125 C 352.347656 259.765625 349.097656 262.886719 345.144531 263.195312 L 198.667969 274.84375 L 169.632812 297.683594 C 169.601562 297.707031 169.566406 297.734375 169.53125 297.757812 C 169.5 297.78125 169.460938 297.789062 169.429688 297.808594 C 169.394531 297.832031 169.363281 297.863281 169.328125 297.886719 C 164.03125 301.839844 162.71875 307.226562 163.464844 310.222656 C 163.894531 311.929688 164.542969 313.179688 166.089844 314.148438 C 167.640625 315.113281 170.3125 315.8125 174.886719 315.550781 C 174.902344 315.550781 174.917969 315.550781 174.9375 315.550781 C 175.082031 315.542969 175.25 315.546875 175.394531 315.550781 C 175.421875 315.550781 175.449219 315.546875 175.472656 315.550781 L 350.171875 316.058594 L 350.195312 316.058594 C 354.789062 316.03125 358.652344 319.878906 358.632812 324.46875 C 358.617188 329.058594 354.738281 332.894531 350.144531 332.828125 L 350.121094 332.828125 L 337.351562 332.804688 C 342.097656 335.828125 345.277344 341.121094 345.277344 347.128906 C 345.277344 356.476562 337.625 364.128906 328.277344 364.128906 C 318.929688 364.128906 311.277344 356.476562 311.277344 347.128906 C 311.277344 341.085938 314.464844 335.746094 319.253906 332.726562 L 175.394531 332.320312 C 180.578125 335.242188 184.109375 340.789062 184.109375 347.128906 C 184.109375 356.476562 176.457031 364.128906 167.109375 364.128906 C 157.765625 364.128906 150.109375 356.476562 150.109375 347.128906 C 150.109375 339.011719 155.875 332.171875 163.515625 330.511719 C 156.292969 327.953125 150.742188 322.683594 147.304688 314.632812 C 147.253906 314.53125 147.210938 314.429688 147.179688 314.324219 C 144.542969 303.789062 149.214844 292.335938 158.851562 284.886719 C 158.878906 284.859375 158.902344 284.835938 158.929688 284.808594 C 158.953125 284.792969 158.957031 284.753906 158.980469 284.734375 C 159.0625 284.632812 159.15625 284.539062 159.257812 284.453125 L 179.828125 268.320312 L 115.675781 103.996094 L 74.96875 97.0625 C 74.960938 97.058594 74.953125 97.0625 74.945312 97.0625 C 70.667969 96.375 67.539062 92.390625 67.910156 88.066406 C 68.277344 83.730469 72.054688 80.332031 76.398438 80.394531 Z M 156.78125 160.429688 L 168.609375 190.757812 L 184.03125 190.757812 L 184.03125 161.117188 Z M 189.917969 161.269531 L 189.917969 190.757812 L 218.386719 190.757812 L 218.386719 161.984375 Z M 224.277344 162.109375 L 224.277344 190.757812 L 252.746094 190.757812 L 252.746094 162.824219 Z M 258.632812 162.976562 L 258.632812 190.757812 L 287.105469 190.757812 L 287.105469 163.691406 Z M 292.992188 163.84375 L 292.992188 190.757812 L 321.464844 190.757812 L 321.464844 164.558594 Z M 327.351562 164.683594 L 327.351562 190.757812 L 348.226562 190.757812 L 351.308594 165.296875 Z M 347.511719 196.621094 L 327.351562 196.621094 L 327.351562 223.257812 L 344.300781 223.257812 Z M 321.464844 196.621094 L 292.992188 196.621094 L 292.992188 223.257812 L 321.464844 223.257812 Z M 287.105469 196.621094 L 258.632812 196.621094 L 258.632812 223.257812 L 287.105469 223.257812 Z M 252.746094 196.621094 L 224.277344 196.621094 L 224.277344 223.257812 L 252.746094 223.257812 Z M 218.386719 196.621094 L 189.917969 196.621094 L 189.917969 223.257812 L 218.386719 223.257812 Z M 184.03125 196.621094 L 170.878906 196.621094 L 181.277344 223.257812 L 184.03125 223.257812 Z M 343.582031 229.121094 L 327.347656 229.121094 L 327.347656 248.234375 L 341.417969 247.113281 Z M 321.460938 229.121094 L 292.988281 229.121094 L 292.988281 250.960938 L 321.460938 248.695312 Z M 287.101562 229.121094 L 258.628906 229.121094 L 258.628906 253.691406 L 287.101562 251.445312 Z M 252.742188 229.121094 L 224.273438 229.121094 L 224.273438 256.441406 L 252.742188 254.175781 Z M 218.382812 229.121094 L 189.914062 229.121094 L 189.914062 245.328125 L 195.316406 259.171875 C 196.019531 258.832031 196.785156 258.621094 197.558594 258.558594 L 218.382812 256.902344 Z M 184.027344 229.121094 L 183.59375 229.121094 L 184.027344 230.316406 Z M 328.261719 337.140625 C 322.707031 337.140625 318.269531 341.578125 318.269531 347.132812 C 318.269531 352.6875 322.707031 357.097656 328.261719 357.097656 C 333.816406 357.097656 338.253906 352.6875 338.253906 347.132812 C 338.253906 341.578125 333.816406 337.140625 328.261719 337.140625 Z M 167.101562 337.140625 C 161.546875 337.140625 157.109375 341.578125 157.109375 347.132812 C 157.109375 352.6875 161.546875 357.097656 167.101562 357.097656 C 172.65625 357.097656 177.09375 352.6875 177.09375 347.132812 C 177.09375 341.578125 172.65625 337.140625 167.101562 337.140625 Z M 328.261719 341.882812 C 331.277344 341.882812 333.691406 344.292969 333.691406 347.308594 C 333.691406 350.328125 331.277344 352.714844 328.261719 352.714844 C 325.242188 352.714844 322.832031 350.328125 322.832031 347.308594 C 322.832031 344.292969 325.242188 341.882812 328.261719 341.882812 Z M 167.101562 341.882812 C 170.121094 341.882812 172.53125 344.292969 172.53125 347.308594 C 172.53125 350.328125 170.121094 352.714844 167.101562 352.714844 C 164.082031 352.714844 161.671875 350.328125 161.671875 347.308594 C 161.671875 344.292969 164.082031 341.882812 167.101562 341.882812 Z M 167.101562 341.882812 "/></g></g></svg>